<svg width="200" height="200" viewBox="0 0 200 200" fill="none" xmlns="http://www.w3.org/2000/svg">
<circle cx="100" cy="100" r="100" fill="white"/>
<circle cx="100" cy="100" r="98.5" stroke="#EBEF1A" stroke-opacity="0.6" stroke-width="3"/>
<path d="M118.75 43.75H81.25C75.0368 43.75 70 48.7868 70 55V145C70 151.213 75.0368 156.25 81.25 156.25H118.75C124.963 156.25 130 151.213 130 145V55C130 48.7868 124.963 43.75 118.75 43.75Z" stroke="#D7DB00" stroke-width="6.25" stroke-linecap="round" stroke-linejoin="round"/>
<path d="M81.25 43.75H86.875C87.3723 43.75 87.8492 43.9475 88.2008 44.2992C88.5525 44.6508 88.75 45.1277 88.75 45.625C88.75 46.6196 89.1451 47.5734 89.8484 48.2767C90.5516 48.9799 91.5054 49.375 92.5 49.375H107.5C108.495 49.375 109.448 48.9799 110.152 48.2767C110.855 47.5734 111.25 46.6196 111.25 45.625C111.25 45.1277 111.448 44.6508 111.799 44.2992C112.151 43.9475 112.628 43.75 113.125 43.75H118.75" stroke="#D7DB00" stroke-width="6.25" stroke-linecap="round" stroke-linejoin="round"/>
<rect x="100" y="70" width="50" height="50" rx="10" fill="white"/>
<path d="M148.75 77.5H111.25C108.143 77.5 105.625 80.0184 105.625 83.125V116.875C105.625 119.982 108.143 122.5 111.25 122.5H148.75C151.857 122.5 154.375 119.982 154.375 116.875V83.125C154.375 80.0184 151.857 77.5 148.75 77.5Z" stroke="#D7DB00" stroke-width="5" stroke-linejoin="round"/>
<path d="M146.62 77.5H113.38C109.104 77.5 105.625 81.0332 105.625 85.375V90.625H107.5C107.5 88.75 109.375 86.875 111.25 86.875H148.75C150.625 86.875 152.5 88.75 152.5 90.625H154.375V85.375C154.375 81.0332 150.896 77.5 146.62 77.5Z" fill="#D7DB00"/>
<path d="M136.54 105.4C136.66 104.41 136.75 103.42 136.75 102.4C136.75 101.38 136.66 100.39 136.54 99.4H141.61C141.85 100.36 142 101.365 142 102.4C142 103.435 141.85 104.44 141.61 105.4H136.54ZM133.885 113.74C134.785 112.075 135.475 110.275 135.955 108.4H140.38C138.927 110.902 136.621 112.798 133.885 113.74ZM133.51 105.4H126.49C126.34 104.41 126.25 103.42 126.25 102.4C126.25 101.38 126.34 100.375 126.49 99.4H133.51C133.645 100.375 133.75 101.38 133.75 102.4C133.75 103.42 133.645 104.41 133.51 105.4ZM130 114.34C128.755 112.54 127.75 110.545 127.135 108.4H132.865C132.25 110.545 131.245 112.54 130 114.34ZM124 96.4H119.62C121.058 93.8908 123.362 91.9923 126.1 91.06C125.2 92.725 124.525 94.525 124 96.4ZM119.62 108.4H124C124.525 110.275 125.2 112.075 126.1 113.74C123.368 112.798 121.067 110.902 119.62 108.4ZM118.39 105.4C118.15 104.44 118 103.435 118 102.4C118 101.365 118.15 100.36 118.39 99.4H123.46C123.34 100.39 123.25 101.38 123.25 102.4C123.25 103.42 123.34 104.41 123.46 105.4H118.39ZM130 90.445C131.245 92.245 132.25 94.255 132.865 96.4H127.135C127.75 94.255 128.755 92.245 130 90.445ZM140.38 96.4H135.955C135.486 94.5422 134.79 92.7489 133.885 91.06C136.645 92.005 138.94 93.91 140.38 96.4ZM130 87.4C121.705 87.4 115 94.15 115 102.4C115 106.378 116.58 110.194 119.393 113.007C120.786 114.4 122.44 115.504 124.26 116.258C126.08 117.012 128.03 117.4 130 117.4C133.978 117.4 137.794 115.82 140.607 113.007C143.42 110.194 145 106.378 145 102.4C145 100.43 144.612 98.4797 143.858 96.6598C143.104 94.8399 141.999 93.1863 140.607 91.7934C139.214 90.4005 137.56 89.2957 135.74 88.5418C133.92 87.788 131.97 87.4 130 87.4Z" fill="#D7DB00"/>
</svg>
